<?xml version="1.0" encoding="UTF-8"?>
<svg xmlns="http://www.w3.org/2000/svg" width="512" height="512" viewBox="0 0 512 512">
<g transform="translate(30.72,57.19) scale(1.231)">

  
  <g inkscape:groupmode="layer" id="layer_fondo" inkscape:label="01_fondo">
    <path id="fondo_paralelo" d="M 96,48 L 325,48 L 248,265 L 21,265 Z" style="fill:#05294B;stroke:none"/>
  </g>
  <g inkscape:groupmode="layer" id="layer_blanco" inkscape:label="03_marca_blanca">
    <path id="marca_blanca" d="M 284,106 L 224,105 L 221,99 L 228,85 L 226,81 L 207,81 L 203,86 L 203,92 L 197,104 L 145,104 L 137,125 L 182,126 L 184,130 L 179,146 L 175,152 L 129,152 L 120,177 L 171,178 L 173,184 L 170,188 L 166,202 L 180,203 L 186,182 Z" style="fill:#FFFFFF;stroke:none"/>
  </g>
  <g inkscape:groupmode="layer" id="layer_flecha" inkscape:label="04_flecha_amarilla">
    <path id="flecha_amarilla" d="M 61,200 L 77,200 C 90,218 125,230 160,226 C 195,222 220,200 240,175 L 232.27,161.71 L 271.00,142.00 L 258.31,183.57 C 230,195 200,225 165,234 C 125,244 90,236 76,218 L 76,224 L 61,224 Z" style="fill:#FEC001;stroke:none"/>
  </g>
  <g inkscape:groupmode="layer" id="layer_contorno" inkscape:label="05_contorno">
    <path id="contorno" d="M 96,48 L 325,48 L 248,265 L 21,265 Z" style="fill:none;stroke:#050505;stroke-width:3;stroke-linejoin:miter"/>
  </g>

</g></svg>